<svg width="65" height="65" fill="none" xmlns="http://www.w3.org/2000/svg"><path d="M25.36 11.96a1.905 1.905 0 001.904-1.905v-8.16c-.1-2.527-3.71-2.526-3.809 0v8.16c0 1.052.853 1.904 1.905 1.904zm-9.507-.559a1.904 1.904 0 102.693-2.693l-2.04-2.04a1.905 1.905 0 10-2.693 2.693l2.04 2.04zm19.014 0l2.04-2.04a1.905 1.905 0 10-2.694-2.693l-2.04 2.04a1.905 1.905 0 102.694 2.693z" fill="#FFEB5F"/><path d="M48.352 29.081a2.784 2.784 0 000-3.938 2.784 2.784 0 00-3.939 0l-6.632 6.632a2.788 2.788 0 000 3.939 2.79 2.79 0 003.939 0l6.632-6.632zm0 13.265l4.974-4.975a2.784 2.784 0 000-3.938 2.783 2.783 0 00-3.938 0l-4.975 4.974a2.784 2.784 0 103.939 3.939zm9.948-.622a2.785 2.785 0 00-3.938-.001l-3.316 3.316a2.784 2.784 0 103.938 3.939L58.3 45.66a2.784 2.784 0 000-3.938z" fill="#27CBF9"/><path d="M46.421 47.008l.001-.038a6.545 6.545 0 01-4.702-1.93 6.576 6.576 0 01-1.927-4.706 6.568 6.568 0 01-4.705-1.927 6.602 6.602 0 010-9.325l18.238-18.238c1.04-1.041 1.127-2.814.008-3.933-.932-.932-2.7-1.252-3.946-.006L25.865 30.428l.31.311c5.315 5.314 5.315 13.96 0 19.274a1.905 1.905 0 11-2.693-2.694c3.829-3.828 3.829-10.058 0-13.886l-1.658-1.66a1.9 1.9 0 01-.508-.916l-2.18-9.444c-.67-2.909-3.75-4.594-6.573-3.558a1.905 1.905 0 00-1.249 1.79l.026 26.948-4.898 4.896a1.904 1.904 0 000 2.694L16.7 64.443a1.91 1.91 0 001.347.557h18.79a5.096 5.096 0 003.626-1.503l10.291-10.291a6.562 6.562 0 01-2.404-1.537 6.548 6.548 0 01-1.93-4.661z" fill="#27CBF9"/></svg>