<svg width="65" height="65" fill="none" xmlns="http://www.w3.org/2000/svg"><g clip-path="url(#clip0_723_223)"><path d="M27.28 15.111H49.9c2.294-2.589 4.537-5.135 5.37-6.133 2.606-3.128 1.715-5.928.16-7.374-2.296-2.134-6.734-2.33-10.84.585-3.012-2.881-8.984-2.885-12 0-4.107-2.916-8.545-2.719-10.84-.585-1.556 1.446-2.448 4.246.16 7.374.834 1 3.079 3.55 5.37 6.133zm36.878 31.986C61.924 41.11 53.926 31.245 49.92 26.524H27.261c-.554.655-1.186 1.41-1.868 2.236a5.745 5.745 0 011.365 3.722v10.104a13.377 13.377 0 016.333 4.07c-.643-1.26.271-2.765 1.694-2.765h4.755a.952.952 0 00.952-.95.953.953 0 00-.952-.951h-1.902a4.76 4.76 0 01-4.755-4.754 4.762 4.762 0 013.804-4.66v-.094a1.902 1.902 0 013.805 0h1.902a1.902 1.902 0 110 3.804h-4.756a.951.951 0 00-.95.95c0 .524.425.95.95.95h1.903a4.761 4.761 0 014.755 4.755 4.763 4.763 0 01-3.804 4.659v.095a1.903 1.903 0 01-3.805 0h-1.902a1.89 1.89 0 01-1.178-.41 13.314 13.314 0 01-1.268 17.652h19.297c9.106 0 15.791-9.08 12.522-17.84zM30.346 18.916a1.902 1.902 0 100 3.804h16.486a1.902 1.902 0 100-3.804H30.346z" fill="#27CBF9"/><path d="M11.099 49.533H0v5.83h9.734c.015-2.167.48-4.007 1.365-5.83zm11.854-7.417v-2.092H0v5.832h13.785c2.492-2.409 5.7-3.706 9.168-3.74zM10.242 59.041H0v3.994C0 64.119.882 65 1.966 65H13.85c-1.75-1.706-2.94-3.65-3.609-5.959zm12.711-26.559a1.968 1.968 0 00-1.965-1.966H1.966A1.968 1.968 0 000 32.482v3.865h22.953v-3.865z" fill="#FFEB5F"/><path d="M23.015 45.856c-5.26 0-9.54 4.28-9.54 9.54 0 5.253 4.27 9.54 9.544 9.54 5.26 0 9.54-4.279 9.54-9.54 0-5.26-4.28-9.54-9.544-9.54z" fill="#27CBF9"/></g><defs><clipPath id="clip0_723_223"><path fill="#fff" d="M0 0h65v65H0z"/></clipPath></defs></svg>