<svg width="65" height="65" fill="none" xmlns="http://www.w3.org/2000/svg"><g clip-path="url(#clip0_723_198)"><path d="M49.45 11.098c0-1.524-.595-2.96-1.674-4.039l-5.385-5.385C41.327.61 39.817 0 38.315 0h-.328v11.426H49.45v-.328z" fill="#27CBF9"/><path d="M34.777 39.297a7.642 7.642 0 011.83-2.972l12.894-12.842v-8.249H36.12c-1.053 0-1.843-.851-1.843-1.904V0H5.713A5.72 5.72 0 000 5.713v53.574A5.72 5.72 0 005.713 65h38.024c3.15 0 5.764-2.563 5.764-5.713V45.075l-2.093 2.041a7.572 7.572 0 01-2.96 1.827l-6.056 2.021-.922.05a4.78 4.78 0 01-3.864-1.984 4.776 4.776 0 01-.648-4.288l1.82-5.445zm-25.256-5.02h18.982a1.903 1.903 0 110 3.809H9.52a1.903 1.903 0 110-3.809zm-1.904-5.713c0-1.052.852-1.904 1.904-1.904h18.982a1.903 1.903 0 110 3.809H9.52a1.903 1.903 0 01-1.904-1.905zm0 15.235c0-1.053.852-1.904 1.904-1.904h18.982a1.903 1.903 0 110 3.808H9.52A1.903 1.903 0 017.617 43.8zM36.12 53.32c1.052 0 1.904.852 1.904 1.905a1.903 1.903 0 01-1.904 1.904H24.694a1.903 1.903 0 110-3.809H36.12zM9.52 22.852a1.903 1.903 0 110-3.809h26.6a1.903 1.903 0 110 3.809H9.52z" fill="#27CBF9"/><path d="M38.227 40.981l-1.657 4.97a.952.952 0 001.205 1.205l4.967-1.66-4.515-4.515zm14.79-15.678L40.475 37.844l5.409 5.41 12.54-12.543-5.407-5.408zM63.88 19.84c-.669-.672-1.654-1.057-2.7-1.057-1.045 0-2.03.385-2.703 1.06L55.71 22.61l5.407 5.408 2.768-2.768a3.833 3.833 0 00-.004-5.41z" fill="#FFEB5F"/><path d="M63.885 25.25l.01-.01a.578.578 0 01-.01.01zm.011-.01l.017-.018-.017.017zm.017-.018c.012-.012.012-.012 0 0z" fill="#34D0E8"/></g><defs><clipPath id="clip0_723_198"><path fill="#fff" d="M0 0h65v65H0z"/></clipPath></defs></svg>